<svg xmlns="http://www.w3.org/2000/svg" viewBox="0 0 293.74 95.49">
    <defs>
        <style>
            .prefix__a {
                fill: #fff
            }
        </style>
    </defs>
    <path class="prefix__a"
        d="M130.42 23.89h10.23V18.8h-10.23v-5.53h11.52V7.36h-11.52V1.73h-5.75v5.63h-3.98l1.95-3.38-4.62-2.66-7.47 12.93 4.62 2.66 2.1-3.64h7.4v5.53h-9.43v5.09h9.43v6.27h-13.76v5.16h33.12v-5.16h-13.61v-6.27zM172.78 21.35V4.86h-8.69V1.73h-5.74v3.13h-9.19v18.25h23.62zM154.29 8.64h13.36v1.07h-13.36zm0 4.85h13.36v1h-13.36zm0 4.78h13.36v1.06h-13.36zM166.99 24.31h-7.71v4.93h6.21v1.2h-8.85V25.2h-5.48V35.32h19.62V27.87h-3.79v-3.56zM171.47 27.87h5.94v7.45h-5.94zM144.62 27.87h5.94v7.45h-5.94zM179.34 3.24h6.7v4.99h-6.7zM179.34 13.44h6.7v4.99h-6.7z" />
    <path class="prefix__a"
        d="M209 27.5V14.66h-7.83v-1.42h6.08v-2.59h3.05V3.47h-9.26V.73h-5.74v2.74h-8.28v7.18H190v2.59h6.21v1.42h-7.93V27.5h5.66L186 30.68V19.33h-6.63v16.33H186v-2.13l1 2.15 9.17-3.68-2-4.49h8.08l-2 4.49 9.17 3.69 2-4.57-9-3.61zm-3.4-19.81v1.62h-13.84V7.69zM204 24h-2.81v-1.17H204zm0-5.86v1.19h-2.81v-1.18zm-10.74 0h2.91v1.19h-2.91zm0 4.68h2.91V24h-2.91z" />
    <path class="prefix__a"
        d="M243.47 26.07h-7.35v-1.6h4.23V9.61h-3.92l2.74-1-.29-.74h4.06v-5h-10.5V1.56h-4.95v8H220l2.74-1-.29-.74h4.06V2.87H216V1.56h-4.95v9.09h3.33v13.82h16.14v1.6h-20.18v4.38h6.31l-3.1 2.55 3.21 3.83 7.67-6.42h6.12v5.23h5.57v-5.19h7.35zm-11-18.25h1.15l.68 1.79h-1.83zm-14.61 1.79H216V7.82h1.15zm1.8 3.35h15.44v.48h-15.44zm0 3.84h15.44v.48h-15.44zm0 3.83h15.44v.48h-15.44zM119.43 55.36h-5.28v8.57h-3V41.55h8.95A6.91 6.91 0 01122.46 55l5.28 9h-3.29zm-5.28-2.68h6a4.18 4.18 0 000-8.35h-6zM138.16 61.73a5.23 5.23 0 004.61-2.34l2.36 1.34a8 8 0 01-7 3.62 8.41 8.41 0 11-.19-16.82c4.82 0 8 4 8 8.44a7.53 7.53 0 01-.1 1.25h-13.46a5.47 5.47 0 005.78 4.51zm-5.78-6.94h10.67a5.06 5.06 0 00-5.14-4.64 5.3 5.3 0 00-5.53 4.64zM148.17 55.94a8.24 8.24 0 018.41-8.41 7.67 7.67 0 017.06 4.19l-2.33 1.34a5.12 5.12 0 00-4.73-2.81 5.68 5.68 0 000 11.35 5.38 5.38 0 004.83-2.78l2.36 1.37a8.1 8.1 0 01-7.19 4.16 8.24 8.24 0 01-8.41-8.41zM166.56 40.59h2.78v23.34h-2.78zM189.61 48v16h-2.78v-2.82a6.93 6.93 0 01-6.05 3.17 8.42 8.42 0 010-16.82 6.91 6.91 0 016.05 3.17V48zm-2.78 8a5.68 5.68 0 10-5.7 5.72 5.6 5.6 0 005.7-5.78zM217.1 54v9.94h-2.78v-9.86c0-2.52-1.41-3.9-3.52-3.9s-3.93 1.41-3.93 4.86v8.89h-2.78v-9.85c0-2.52-1.31-3.9-3.39-3.9s-4.09 1.41-4.09 4.86v8.89h-2.78V48h2.78v2.14a5.34 5.34 0 014.76-2.56 5 5 0 014.7 2.72 5.68 5.68 0 015-2.72c3.57-.05 6.03 2.42 6.03 6.42zM237 48v16h-2.78v-2.82a6.91 6.91 0 01-6 3.17 8.42 8.42 0 010-16.82 6.89 6.89 0 016 3.17V48zm-2.78 8a5.68 5.68 0 10-5.69 5.72 5.59 5.59 0 005.68-5.78zM245.66 50.63v8.67c0 2.43 1.4 2.27 4.25 2.14v2.49c-4.8.64-7-.64-7-4.63v-8.67h-3.17V48h3.17v-3.7l2.78-.83V48h4.25v2.68zM252.82 43.18a1.87 1.87 0 113.74 0 1.87 1.87 0 01-3.74 0zm.48 4.82h2.78v16h-2.78zM259.44 55.94a8.42 8.42 0 118.41 8.41 8.34 8.34 0 01-8.41-8.41zm14.06 0a5.64 5.64 0 10-5.65 5.69 5.57 5.57 0 005.65-5.69zM293.74 54.12v9.81H291v-9.65c0-2.63-1.5-4.1-4-4.1s-4.64 1.51-4.64 5.28v8.47h-2.78V48h2.78v2.3a5.67 5.67 0 015.18-2.72c3.74-.05 6.2 2.42 6.2 6.54zM124.1 83.66H114l-1.82 5H109l8.34-22.38h3.36l8.34 22.38h-3.16zm-1-2.78l-4-11-4 11zM131.45 65.34h2.78v23.34h-2.78zM154.5 72.7V88c0 5-4 7.48-8.15 7.48-3.58 0-6.27-1.37-7.58-3.9l2.43-1.37c.74 1.5 2.08 2.68 5.21 2.68 3.33 0 5.34-1.89 5.34-4.89v-2.26a6.92 6.92 0 01-6 3.2 8.33 8.33 0 010-16.66 6.88 6.88 0 016 3.17V72.7zm-2.75 7.89a5.69 5.69 0 10-5.69 5.69 5.58 5.58 0 005.69-5.69zM157.83 80.69a8.43 8.43 0 118.41 8.41 8.34 8.34 0 01-8.41-8.41zm14.06 0a5.64 5.64 0 10-5.65 5.69 5.57 5.57 0 005.65-5.69zM185.74 72.41v2.91c-2.4-.1-5 1.12-5 4.89v8.47H178v-16h2.78v2.68a5.07 5.07 0 014.96-2.95zM188 67.93a1.87 1.87 0 113.74 0 1.87 1.87 0 01-3.74 0zm.48 4.77h2.78v16h-2.78zM199.93 75.38v8.67c0 2.43 1.41 2.27 4.26 2.14v2.49c-4.8.64-7-.64-7-4.63v-8.67H194V72.7h3.16v-3.65l2.78-.83v4.48h4.26v2.68zM221.74 78.87v9.81H219V79c0-2.63-1.51-4.1-4-4.1s-4.63 1.51-4.63 5.28v8.47h-2.78V66.3h2.78V75a5.67 5.67 0 015.18-2.72c3.73 0 6.19 2.49 6.19 6.59zM248.88 78.74v9.94h-2.78v-9.85c0-2.52-1.4-3.9-3.51-3.9s-3.94 1.41-3.94 4.86v8.89h-2.78v-9.85c0-2.52-1.31-3.9-3.39-3.9s-4.09 1.41-4.09 4.86v8.89h-2.78v-16h2.78v2.14a5.34 5.34 0 014.76-2.56 5 5 0 014.7 2.72 5.68 5.68 0 015-2.72c3.57.02 6.03 2.48 6.03 6.48zM25.98 62.12l11.89-20.35 11.89 20.35h9.76l-16.77-28.7 5.33-9.12h-9.76l-.45.77-.45-.77h-9.76l5.33 9.12-16.78 28.7h9.77z" />
    <path class="prefix__a"
        d="M56.51 10.17L62.46 0H51.57l-.47.8-.18-.31-.18.31-.47-.8H39.38l5.95 10.17-6.48 11.22h10.73l1.34-2.32 34.83 60.32H16.09l8.3-14.37H13.66L0 88.68h101.84L56.51 10.17z" />
</svg>
